<svg data-v-423bf9ae="" xmlns="http://www.w3.org/2000/svg" viewBox="0 0 90.94673616262347 60" class="font"><!----><!----><!----><g data-v-423bf9ae="" id="cae623a5-234d-4bd4-bfe6-10918cb98ea4" fill="black" transform="matrix(5.917159562968884,0,0,5.917159562968884,-9.940829089491018,-17.21893412085759)"><path d="M1.68 3.08L1.68 12.88L5.19 12.88L5.19 12.88Q6.13 12.88 6.78 12.64L6.78 12.64L6.78 12.64Q7.42 12.39 7.81 12.00L7.81 12.00L7.81 12.00Q8.20 11.61 8.38 11.11L8.38 11.11L8.38 11.11Q8.55 10.61 8.55 10.11L8.55 10.11L8.55 10.11Q8.55 9.31 8.21 8.83L8.21 8.83L8.21 8.83Q7.87 8.36 7.39 8.11L7.39 8.11L7.39 8.11Q6.92 7.85 6.41 7.77L6.41 7.77L6.41 7.77Q5.91 7.69 5.60 7.67L5.60 7.67L5.60 7.62L5.60 7.62Q6.09 7.62 6.52 7.43L6.52 7.43L6.52 7.43Q6.96 7.24 7.29 6.94L7.29 6.94L7.29 6.94Q7.62 6.64 7.81 6.24L7.81 6.24L7.81 6.24Q8.01 5.84 8.01 5.39L8.01 5.39L8.01 5.39Q8.01 5.00 7.84 4.59L7.84 4.59L7.84 4.59Q7.67 4.19 7.33 3.85L7.33 3.85L7.33 3.85Q6.99 3.51 6.45 3.30L6.45 3.30L6.45 3.30Q5.91 3.08 5.18 3.08L5.18 3.08L1.68 3.08ZM4.98 12.26L2.95 12.26L2.95 7.98L4.49 7.98L4.49 7.98Q5.18 7.98 5.68 8.16L5.68 8.16L5.68 8.16Q6.19 8.34 6.52 8.65L6.52 8.65L6.52 8.65Q6.85 8.96 7.01 9.37L7.01 9.37L7.01 9.37Q7.17 9.77 7.17 10.22L7.17 10.22L7.17 10.22Q7.17 10.71 6.99 11.09L6.99 11.09L6.99 11.09Q6.82 11.47 6.52 11.73L6.52 11.73L6.52 11.73Q6.23 12.00 5.83 12.13L5.83 12.13L5.83 12.13Q5.43 12.26 4.98 12.26L4.98 12.26ZM4.63 7.36L2.95 7.36L2.95 3.70L4.66 3.70L4.66 3.70Q5.21 3.70 5.59 3.85L5.59 3.85L5.59 3.85Q5.98 4.00 6.22 4.26L6.22 4.26L6.22 4.26Q6.47 4.51 6.58 4.83L6.58 4.83L6.58 4.83Q6.69 5.15 6.69 5.47L6.69 5.47L6.69 5.47Q6.69 5.88 6.53 6.23L6.53 6.23L6.53 6.23Q6.37 6.58 6.08 6.83L6.08 6.83L6.08 6.83Q5.80 7.08 5.42 7.22L5.42 7.22L5.42 7.22Q5.05 7.36 4.63 7.36L4.63 7.36ZM10.72 10.40L9.77 10.40L9.77 10.40Q9.80 11.00 10.09 11.49L10.09 11.49L10.09 11.49Q10.37 11.98 10.87 12.33L10.87 12.33L10.87 12.33Q11.37 12.67 12.04 12.86L12.04 12.86L12.04 12.86Q12.71 13.05 13.51 13.05L13.51 13.05L13.51 13.05Q14.32 13.05 14.97 12.85L14.97 12.85L14.97 12.85Q15.62 12.66 16.09 12.29L16.09 12.29L16.09 12.29Q16.55 11.93 16.80 11.41L16.80 11.41L16.80 11.41Q17.05 10.89 17.05 10.26L17.05 10.26L17.05 10.26Q17.05 9.39 16.62 8.84L16.62 8.84L16.62 8.84Q16.18 8.29 15.53 7.92L15.53 7.92L15.53 7.92Q14.88 7.55 14.12 7.29L14.12 7.29L14.12 7.29Q13.36 7.04 12.71 6.76L12.71 6.76L12.71 6.76Q12.05 6.48 11.62 6.12L11.62 6.12L11.62 6.12Q11.19 5.75 11.19 5.15L11.19 5.15L11.19 5.15Q11.19 4.82 11.33 4.52L11.33 4.52L11.33 4.52Q11.48 4.23 11.77 4.01L11.77 4.01L11.77 4.01Q12.05 3.79 12.47 3.66L12.47 3.66L12.47 3.66Q12.89 3.53 13.44 3.53L13.44 3.53L13.44 3.53Q14.35 3.53 14.99 3.91L14.99 3.91L14.99 3.91Q15.62 4.30 15.74 5.12L15.74 5.12L16.69 5.12L16.69 5.12Q16.60 4.61 16.31 4.19L16.31 4.19L16.31 4.19Q16.02 3.78 15.57 3.49L15.57 3.49L15.57 3.49Q15.12 3.21 14.55 3.06L14.55 3.06L14.55 3.06Q13.99 2.91 13.37 2.91L13.37 2.91L13.37 2.91Q12.73 2.91 12.14 3.08L12.14 3.08L12.14 3.08Q11.56 3.25 11.12 3.57L11.12 3.57L11.12 3.57Q10.68 3.89 10.42 4.38L10.42 4.38L10.42 4.38Q10.16 4.87 10.16 5.50L10.16 5.50L10.16 5.50Q10.16 6.33 10.58 6.83L10.58 6.83L10.58 6.83Q11.00 7.34 11.64 7.67L11.64 7.67L11.64 7.67Q12.28 8.01 13.02 8.25L13.02 8.25L13.02 8.25Q13.76 8.48 14.40 8.79L14.40 8.79L14.40 8.79Q15.04 9.09 15.46 9.52L15.46 9.52L15.46 9.52Q15.88 9.95 15.88 10.68L15.88 10.68L15.88 10.68Q15.88 11.59 15.21 12.01L15.21 12.01L15.21 12.01Q14.55 12.43 13.44 12.43L13.44 12.43L13.44 12.43Q12.56 12.43 12.03 12.20L12.03 12.20L12.03 12.20Q11.49 11.97 11.21 11.65L11.21 11.65L11.21 11.65Q10.93 11.33 10.84 10.98L10.84 10.98L10.84 10.98Q10.74 10.64 10.72 10.40L10.72 10.40Z"></path></g><!----><!----></svg>